name p10_grf_mean_speed_1.8
datacolumns 13
datarows 68
range 0.0000000000 0.6700000000
endheader
time	grf_x_l_mean	grf_x_l_var	grf_y_l_mean	grf_y_l_var	grf_z_l_mean	grf_z_l_var	grf_x_r_mean	grf_x_r_var	grf_y_r_mean	grf_y_r_var	grf_z_r_mean	grf_z_r_var
0.0000000000	244.3804701990	1.0000000000	1266.0207636978	1.0000000000	0.0000000000	0.0000000000	19.0340696809	1.0000000000	12.0840259147	1.0000000000	0.0000000000	0.0000000000
0.0100000000	269.5355655461	1.0000000000	1235.2940151271	1.0000000000	0.0000000000	0.0000000000	26.8571048660	1.0000000000	71.8640590663	1.0000000000	0.0000000000	0.0000000000
0.0200000000	291.8341749911	1.0000000000	1178.9497695935	1.0000000000	0.0000000000	0.0000000000	30.3356614050	1.0000000000	172.5765325533	1.0000000000	0.0000000000	0.0000000000
0.0300000000	308.0562955565	1.0000000000	1095.3020258942	1.0000000000	0.0000000000	0.0000000000	21.3316178883	1.0000000000	313.2541235020	1.0000000000	0.0000000000	0.0000000000
0.0400000000	314.0008625767	1.0000000000	983.9616263421	1.0000000000	0.0000000000	0.0000000000	-8.3348213062	1.0000000000	478.1705767270	1.0000000000	0.0000000000	0.0000000000
0.0500000000	303.6523402240	1.0000000000	846.8428288687	1.0000000000	0.0000000000	0.0000000000	-55.6487170265	1.0000000000	642.9871785390	1.0000000000	0.0000000000	0.0000000000
0.0600000000	274.9813696957	1.0000000000	690.8922211668	1.0000000000	0.0000000000	0.0000000000	-106.3343293020	1.0000000000	786.5220250059	1.0000000000	0.0000000000	0.0000000000
0.0700000000	230.9539783976	1.0000000000	528.7223394812	1.0000000000	0.0000000000	0.0000000000	-150.1288103586	1.0000000000	899.6152479582	1.0000000000	0.0000000000	0.0000000000
0.0800000000	175.1503895395	1.0000000000	375.6467397945	1.0000000000	0.0000000000	0.0000000000	-186.4210450325	1.0000000000	984.5711557460	1.0000000000	0.0000000000	0.0000000000
0.0900000000	116.1459236966	1.0000000000	244.5174306612	1.0000000000	0.0000000000	0.0000000000	-215.2439988708	1.0000000000	1049.8963771411	1.0000000000	0.0000000000	0.0000000000
0.1000000000	65.7119388131	1.0000000000	143.3031460327	1.0000000000	0.0000000000	0.0000000000	-234.7369024340	1.0000000000	1105.2679599747	1.0000000000	0.0000000000	0.0000000000
0.1100000000	28.3524613974	1.0000000000	73.7668686421	1.0000000000	0.0000000000	0.0000000000	-245.4538923209	1.0000000000	1156.0879548894	1.0000000000	0.0000000000	0.0000000000
0.1200000000	3.4775974960	1.0000000000	31.0978605449	1.0000000000	0.0000000000	0.0000000000	-248.8243487159	1.0000000000	1201.3409015461	1.0000000000	0.0000000000	0.0000000000
0.1300000000	-8.8257473312	1.0000000000	7.3598647553	1.0000000000	0.0000000000	0.0000000000	-243.7695945405	1.0000000000	1236.6169442008	1.0000000000	0.0000000000	0.0000000000
0.1400000000	0.0000000000	1.0000000000	0.0000000000	1.0000000000	0.0000000000	0.0000000000	-229.8859325851	1.0000000000	1257.6339955467	1.0000000000	0.0000000000	0.0000000000
0.1500000000	0.0000000000	1.0000000000	0.0000000000	1.0000000000	0.0000000000	0.0000000000	-210.7274568354	1.0000000000	1261.2258006160	1.0000000000	0.0000000000	0.0000000000
0.1600000000	0.0000000000	1.0000000000	0.0000000000	1.0000000000	0.0000000000	0.0000000000	-187.8600060279	1.0000000000	1245.1464120027	1.0000000000	0.0000000000	0.0000000000
0.1700000000	0.0000000000	1.0000000000	0.0000000000	1.0000000000	0.0000000000	0.0000000000	-161.4110859596	1.0000000000	1208.8009246428	1.0000000000	0.0000000000	0.0000000000
0.1800000000	0.0000000000	1.0000000000	0.0000000000	1.0000000000	0.0000000000	0.0000000000	-133.6972620986	1.0000000000	1155.2798201726	1.0000000000	0.0000000000	0.0000000000
0.1900000000	0.0000000000	1.0000000000	0.0000000000	1.0000000000	0.0000000000	0.0000000000	-107.6843384432	1.0000000000	1090.1162124618	1.0000000000	0.0000000000	0.0000000000
0.2000000000	0.0000000000	1.0000000000	0.0000000000	1.0000000000	0.0000000000	0.0000000000	-83.1788931932	1.0000000000	1017.8660053998	1.0000000000	0.0000000000	0.0000000000
0.2100000000	0.0000000000	1.0000000000	0.0000000000	1.0000000000	0.0000000000	0.0000000000	-60.4138202152	1.0000000000	941.6282827989	1.0000000000	0.0000000000	0.0000000000
0.2200000000	0.0000000000	1.0000000000	0.0000000000	1.0000000000	0.0000000000	0.0000000000	-41.7025461900	1.0000000000	864.8799126008	1.0000000000	0.0000000000	0.0000000000
0.2300000000	0.0000000000	1.0000000000	0.0000000000	1.0000000000	0.0000000000	0.0000000000	-26.9401169914	1.0000000000	791.5670823496	1.0000000000	0.0000000000	0.0000000000
0.2400000000	1.5105994581	1.0000000000	0.0026904893	1.0000000000	0.0000000000	0.0000000000	-15.1795274427	1.0000000000	724.6296216482	1.0000000000	0.0000000000	0.0000000000
0.2500000000	0.0000000000	1.0000000000	0.0000000000	1.0000000000	0.0000000000	0.0000000000	-6.6174522559	1.0000000000	665.6810674186	1.0000000000	0.0000000000	0.0000000000
0.2600000000	0.0000000000	1.0000000000	0.0000000000	1.0000000000	0.0000000000	0.0000000000	-1.3244274081	1.0000000000	615.7325394471	1.0000000000	0.0000000000	0.0000000000
0.2700000000	0.0000000000	1.0000000000	0.0000000000	1.0000000000	0.0000000000	0.0000000000	2.3855502950	1.0000000000	575.6676691429	1.0000000000	0.0000000000	0.0000000000
0.2800000000	0.0000000000	1.0000000000	0.0000000000	1.0000000000	0.0000000000	0.0000000000	5.1399917673	1.0000000000	546.2561966228	1.0000000000	0.0000000000	0.0000000000
0.2900000000	0.0000000000	1.0000000000	0.0000000000	1.0000000000	0.0000000000	0.0000000000	6.4224877743	1.0000000000	527.5103468619	1.0000000000	0.0000000000	0.0000000000
0.3000000000	0.0000000000	1.0000000000	0.0000000000	1.0000000000	0.0000000000	0.0000000000	7.2870260794	1.0000000000	518.9161853400	1.0000000000	0.0000000000	0.0000000000
0.3100000000	0.0000000000	1.0000000000	0.0000000000	1.0000000000	0.0000000000	0.0000000000	8.5931280702	1.0000000000	520.2786015656	1.0000000000	0.0000000000	0.0000000000
0.3200000000	0.0000000000	1.0000000000	0.0000000000	1.0000000000	0.0000000000	0.0000000000	10.2864086438	1.0000000000	531.4120907067	1.0000000000	0.0000000000	0.0000000000
0.3300000000	0.0000000000	1.0000000000	0.0000000000	1.0000000000	0.0000000000	0.0000000000	12.7623517324	1.0000000000	551.8197787056	1.0000000000	0.0000000000	0.0000000000
0.3400000000	0.0000000000	1.0000000000	0.0000000000	1.0000000000	0.0000000000	0.0000000000	16.9554987921	1.0000000000	581.2149170026	1.0000000000	0.0000000000	0.0000000000
0.3500000000	0.0000000000	1.0000000000	0.0000000000	1.0000000000	0.0000000000	0.0000000000	22.7458839603	1.0000000000	619.5046061336	1.0000000000	0.0000000000	0.0000000000
0.3600000000	0.7751087634	1.0000000000	0.0749731561	1.0000000000	0.0000000000	0.0000000000	30.0781656533	1.0000000000	665.9344327767	1.0000000000	0.0000000000	0.0000000000
0.3700000000	0.7582234334	1.0000000000	0.0532610732	1.0000000000	0.0000000000	0.0000000000	39.5060526475	1.0000000000	719.5128957125	1.0000000000	0.0000000000	0.0000000000
0.3800000000	1.0668789138	1.0000000000	0.1370463958	1.0000000000	0.0000000000	0.0000000000	50.6595191403	1.0000000000	779.7061620170	1.0000000000	0.0000000000	0.0000000000
0.3900000000	0.7321752676	1.0000000000	0.5812681494	1.0000000000	0.0000000000	0.0000000000	62.8469583606	1.0000000000	845.0750349886	1.0000000000	0.0000000000	0.0000000000
0.4000000000	0.2170466946	1.0000000000	0.7594523469	1.0000000000	0.0000000000	0.0000000000	76.4692513808	1.0000000000	912.6713907287	1.0000000000	0.0000000000	0.0000000000
0.4100000000	-0.0437356563	1.0000000000	0.0473786499	1.0000000000	0.0000000000	0.0000000000	92.1208191088	1.0000000000	979.9305888787	1.0000000000	0.0000000000	0.0000000000
0.4200000000	0.0000000000	1.0000000000	0.0000000000	1.0000000000	0.0000000000	0.0000000000	109.4090435073	1.0000000000	1045.5008317766	1.0000000000	0.0000000000	0.0000000000
0.4300000000	0.0000000000	1.0000000000	0.0000000000	1.0000000000	0.0000000000	0.0000000000	128.3990193536	1.0000000000	1107.5446145051	1.0000000000	0.0000000000	0.0000000000
0.4400000000	0.0000000000	1.0000000000	0.0000000000	1.0000000000	0.0000000000	0.0000000000	149.3220846091	1.0000000000	1162.9853482858	1.0000000000	0.0000000000	0.0000000000
0.4500000000	0.0000000000	1.0000000000	0.0000000000	1.0000000000	0.0000000000	0.0000000000	171.5452877934	1.0000000000	1208.8660984733	1.0000000000	0.0000000000	0.0000000000
0.4600000000	0.0000000000	1.0000000000	0.0000000000	1.0000000000	0.0000000000	0.0000000000	194.4935525057	1.0000000000	1242.9398167792	1.0000000000	0.0000000000	0.0000000000
0.4700000000	0.0000000000	1.0000000000	0.0000000000	1.0000000000	0.0000000000	0.0000000000	218.1327616265	1.0000000000	1262.9138924020	1.0000000000	0.0000000000	0.0000000000
0.4800000000	0.0000000000	1.0000000000	0.0000000000	1.0000000000	0.0000000000	0.0000000000	242.0206401390	1.0000000000	1266.2678055845	1.0000000000	0.0000000000	0.0000000000
0.4900000000	16.6284702628	1.0000000000	24.2043026097	1.0000000000	0.0000000000	0.0000000000	265.0118542442	1.0000000000	1250.3935009781	1.0000000000	0.0000000000	0.0000000000
0.5000000000	20.1951384971	1.0000000000	95.8256898934	1.0000000000	0.0000000000	0.0000000000	286.1155405178	1.0000000000	1212.3583045477	1.0000000000	0.0000000000	0.0000000000
0.5100000000	17.3332588927	1.0000000000	210.9502265137	1.0000000000	0.0000000000	0.0000000000	303.3541480999	1.0000000000	1149.2729940183	1.0000000000	0.0000000000	0.0000000000
0.5200000000	0.0818109795	1.0000000000	364.8516030616	1.0000000000	0.0000000000	0.0000000000	312.9063709994	1.0000000000	1059.7031492710	1.0000000000	0.0000000000	0.0000000000
0.5300000000	-37.9527991800	1.0000000000	537.2384822384	1.0000000000	0.0000000000	0.0000000000	310.3152153185	1.0000000000	944.5129120662	1.0000000000	0.0000000000	0.0000000000
0.5400000000	-91.4569272081	1.0000000000	700.5596330607	1.0000000000	0.0000000000	0.0000000000	292.0790802533	1.0000000000	807.0271674076	1.0000000000	0.0000000000	0.0000000000
0.5500000000	-145.6336714474	1.0000000000	834.9186117713	1.0000000000	0.0000000000	0.0000000000	258.3529719551	1.0000000000	654.2218543065	1.0000000000	0.0000000000	0.0000000000
0.5600000000	-191.0456508345	1.0000000000	936.0600680003	1.0000000000	0.0000000000	0.0000000000	212.3254120327	1.0000000000	497.9584381149	1.0000000000	0.0000000000	0.0000000000
0.5700000000	-227.5373956477	1.0000000000	1010.6394737599	1.0000000000	0.0000000000	0.0000000000	158.5401928733	1.0000000000	352.6216531849	1.0000000000	0.0000000000	0.0000000000
0.5800000000	-255.9904557751	1.0000000000	1069.0340979860	1.0000000000	0.0000000000	0.0000000000	104.8856326286	1.0000000000	230.0001690685	1.0000000000	0.0000000000	0.0000000000
0.5900000000	-275.9249281736	1.0000000000	1120.8101723032	1.0000000000	0.0000000000	0.0000000000	59.6530275428	1.0000000000	136.3677322080	1.0000000000	0.0000000000	0.0000000000
0.6000000000	-287.7718643070	1.0000000000	1171.0511854110	1.0000000000	0.0000000000	0.0000000000	25.9842516076	1.0000000000	71.8844328647	1.0000000000	0.0000000000	0.0000000000
0.6100000000	-292.1514100328	1.0000000000	1218.7307761131	1.0000000000	0.0000000000	0.0000000000	4.0643914779	1.0000000000	31.5623667551	1.0000000000	0.0000000000	0.0000000000
0.6200000000	-288.2905719816	1.0000000000	1258.5712767551	1.0000000000	0.0000000000	0.0000000000	-6.6193192201	1.0000000000	8.1375837691	1.0000000000	0.0000000000	0.0000000000
0.6300000000	-276.5311245713	1.0000000000	1285.0509209179	1.0000000000	0.0000000000	0.0000000000	0.0000000000	1.0000000000	0.0000000000	1.0000000000	0.0000000000	0.0000000000
0.6400000000	-259.5590642377	1.0000000000	1294.1394409614	1.0000000000	0.0000000000	0.0000000000	0.0000000000	1.0000000000	0.0000000000	1.0000000000	0.0000000000	0.0000000000
0.6500000000	-237.9786710685	1.0000000000	1282.9768726721	1.0000000000	0.0000000000	0.0000000000	0.0000000000	1.0000000000	0.0000000000	1.0000000000	0.0000000000	0.0000000000
0.6600000000	-211.9152479932	1.0000000000	1250.8673527703	1.0000000000	0.0000000000	0.0000000000	0.0000000000	1.0000000000	0.0000000000	1.0000000000	0.0000000000	0.0000000000
0.6700000000	-183.6896839321	1.0000000000	1200.2919768749	1.0000000000	0.0000000000	0.0000000000	0.0000000000	1.0000000000	0.0000000000	1.0000000000	0.0000000000	0.0000000000
